<svg width="1600" height="900" xmlns="http://www.w3.org/2000/svg" xmlns:xlink="http://www.w3.org/1999/xlink" overflow="hidden"><defs><filter id="fx0" x="-10%" y="-10%" width="120%" height="120%" filterUnits="userSpaceOnUse" primitiveUnits="userSpaceOnUse"><feComponentTransfer color-interpolation-filters="sRGB"><feFuncR type="discrete" tableValues="0 0"/><feFuncG type="discrete" tableValues="0 0"/><feFuncB type="discrete" tableValues="0 0"/><feFuncA type="linear" slope="0.14902" intercept="0"/></feComponentTransfer><feGaussianBlur stdDeviation="0.833333 0.833333"/></filter><filter id="fx1" x="-10%" y="-10%" width="120%" height="120%" filterUnits="userSpaceOnUse" primitiveUnits="userSpaceOnUse"><feComponentTransfer color-interpolation-filters="sRGB"><feFuncR type="discrete" tableValues="0 0"/><feFuncG type="discrete" tableValues="0 0"/><feFuncB type="discrete" tableValues="0 0"/><feFuncA type="linear" slope="0.14902" intercept="0"/></feComponentTransfer><feGaussianBlur stdDeviation="0.833333 0.833333"/></filter><filter id="fx2" x="-10%" y="-10%" width="120%" height="120%" filterUnits="userSpaceOnUse" primitiveUnits="userSpaceOnUse"><feComponentTransfer color-interpolation-filters="sRGB"><feFuncR type="discrete" tableValues="0 0"/><feFuncG type="discrete" tableValues="0 0"/><feFuncB type="discrete" tableValues="0 0"/><feFuncA type="linear" slope="0.14902" intercept="0"/></feComponentTransfer><feGaussianBlur stdDeviation="0.833333 0.833333"/></filter><clipPath id="clip3"><rect x="0" y="0" width="1600" height="900"/></clipPath><clipPath id="clip4"><path d="M783.6 168C778.298 168 774 172.298 774 177.599L774 344.401C774 349.702 778.298 354 783.6 354L1004.4 354C1009.7 354 1014 349.702 1014 344.401L1014 177.599C1014 172.298 1009.7 168 1004.4 168ZM2.38419e-05 1.3411e-05 1600 1.3411e-05 1600 900 2.38419e-05 900Z" fill-rule="evenodd" clip-rule="evenodd"/></clipPath><clipPath id="clip5"><rect x="1" y="1" width="249" height="195"/></clipPath><clipPath id="clip6"><path d="M1041.6 168C1036.3 168 1032 172.298 1032 177.599L1032 344.401C1032 349.702 1036.3 354 1041.6 354L1262.4 354C1267.7 354 1272 349.702 1272 344.401L1272 177.599C1272 172.298 1267.7 168 1262.4 168ZM2.38419e-05 1.3411e-05 1600 1.3411e-05 1600 900 2.38419e-05 900Z" fill-rule="evenodd" clip-rule="evenodd"/></clipPath><clipPath id="clip7"><rect x="1" y="1" width="249" height="195"/></clipPath><clipPath id="clip8"><path d="M1299.6 168C1294.3 168 1290 172.298 1290 177.599L1290 344.401C1290 349.702 1294.3 354 1299.6 354L1520.4 354C1525.7 354 1530 349.702 1530 344.401L1530 177.599C1530 172.298 1525.7 168 1520.4 168ZM2.38419e-05 1.3411e-05 1600 1.3411e-05 1600 900 2.38419e-05 900Z" fill-rule="evenodd" clip-rule="evenodd"/></clipPath><clipPath id="clip9"><rect x="1" y="1" width="249" height="195"/></clipPath></defs><g clip-path="url(#clip3)"><rect x="0" y="0" width="1600" height="900" fill="#F7FAFC"/><rect x="0" y="0" width="1600" height="54" stroke="#0F4C81" stroke-width="1.66667" stroke-linejoin="round" stroke-miterlimit="10" fill="#0F4C81"/><rect x="0" y="852" width="1600" height="48" stroke="#009E49" stroke-width="1.66667" stroke-linejoin="round" stroke-miterlimit="10" fill="#009E49"/><text fill="#FFFFFF" font-family="Aptos,Aptos_MSFontService,Arial" font-weight="700" font-size="36.6667" transform="translate(60 13)">Grade 11 Physics • Formal</text><text fill="#FFFFFF" font-family="Aptos,Aptos_MSFontService,Arial" font-weight="700" font-size="36.6667" transform="translate(60 57)">Observation</text><text fill="#FFFFFF" font-family="Aptos,Aptos_MSFontService,Arial" font-weight="700" font-size="20" transform="translate(1370.29 871)">Linear Momentum</text><text fill="#0F4C81" font-family="Aptos,Aptos_MSFontService,Arial" font-weight="700" font-size="33.3333" transform="translate(66 115)">Formula of Momentum</text><text fill="#6B7280" font-family="Aptos,Aptos_MSFontService,Arial" font-style="italic" font-weight="400" font-size="33.3333" transform="translate(69.6 159)">Clarify the formula, symbols, and units.</text><path d="M88 220.75C88 212.052 95.0515 205 103.75 205L702.25 205C710.948 205 718 212.052 718 220.75L718 828.25C718 836.948 710.948 844 702.25 844L103.75 844C95.0515 844 88 836.948 88 828.25Z" stroke="#BFD5E5" stroke-width="2" stroke-linejoin="round" stroke-miterlimit="10" fill="#EEF4F8" fill-rule="evenodd"/><text fill="#0F4C81" font-family="Aptos,Aptos_MSFontService,Arial" font-weight="700" font-size="33.3333" transform="translate(325.729 517)">p = m</text><text fill="#0F4C81" font-family="Aptos,Aptos_MSFontService,Arial" font-weight="700" font-size="33.3333" transform="translate(413.229 517)">×</text><text fill="#0F4C81" font-family="Aptos,Aptos_MSFontService,Arial" font-weight="700" font-size="33.3333" transform="translate(437.812 517)">v</text><path d="M321.767 314.4 593.017 314.4 593.017 354.4 321.767 354.4Z" fill="#FFFF00" fill-rule="evenodd"/><path d="M593.017 314.4 599.892 314.4 599.892 354.4 593.017 354.4Z" fill="#FFFF00" fill-rule="evenodd"/><text fill="#FF0000" font-family="Aptos,Aptos_MSFontService,Arial" font-weight="400" font-size="33.3333" transform="translate(162 265)">Momentum</text><text font-family="Aptos,Aptos_MSFontService,Arial" font-weight="400" font-size="33.3333" transform="translate(335.333 265)">is the quantity of</text><text font-family="Aptos,Aptos_MSFontService,Arial" font-weight="400" font-size="33.3333" transform="translate(162 305)">motion of an object.</text><text font-family="Aptos,Aptos_MSFontService,Arial" font-weight="400" font-size="33.3333" transform="translate(162 345)">In physics,</text><text font-family="Aptos,Aptos_MSFontService,Arial" font-weight="700" font-size="33.3333" transform="translate(321.767 345)">linear momentum</text><text font-family="Aptos,Aptos_MSFontService,Arial" font-weight="400" font-size="33.3333" transform="translate(593.017 345)"></text><text font-family="Aptos,Aptos_MSFontService,Arial" font-weight="400" font-size="33.3333" transform="translate(599.892 345)">is</text><text font-family="Aptos,Aptos_MSFontService,Arial" font-weight="400" font-size="33.3333" transform="translate(162 385)">defined as the product of an</text><text font-family="Aptos,Aptos_MSFontService,Arial" font-weight="400" font-size="33.3333" transform="translate(162 425)">object’s</text><text font-family="Aptos,Aptos_MSFontService,Arial" font-weight="700" font-size="33.3333" transform="translate(282.658 425)">mass and velocity</text><text font-family="Aptos,Aptos_MSFontService,Arial" font-weight="700" font-size="33.3333" transform="translate(342.442 465)">Formula :</text><text fill="#1F2937" font-family="Aptos,Aptos_MSFontService,Arial" font-weight="400" font-size="33.3333" transform="translate(204.767 545)">Momentum = mass</text><text fill="#1F2937" font-family="Aptos,Aptos_MSFontService,Arial" font-weight="400" font-size="33.3333" transform="translate(488.1 545)">×</text><text fill="#1F2937" font-family="Aptos,Aptos_MSFontService,Arial" font-weight="400" font-size="33.3333" transform="translate(512.683 545)">velocity</text><text font-family="Aptos,Aptos_MSFontService,Arial" font-weight="400" font-size="33.3333" transform="translate(162 705)">.</text><text fill="#D71920" font-family="Aptos,Aptos_MSFontService,Arial" font-weight="700" font-size="33.3333" transform="translate(204.6 607)">Unit of momentum = kg·m/s</text><g clip-path="url(#clip4)"><g clip-path="url(#clip5)" filter="url(#fx0)" transform="translate(770 164)"><g><path d="M5.17853 14.778C5.17853 9.47634 9.47636 5.17851 14.778 5.17851L235.579 5.17851C240.881 5.17851 245.179 9.47634 245.179 14.778L245.179 181.579C245.179 186.881 240.881 191.179 235.579 191.179L14.778 191.179C9.47636 191.179 5.17853 186.881 5.17853 181.579Z" stroke="#D7E2EA" stroke-width="2" stroke-linejoin="round" stroke-miterlimit="10" fill="#FFFFFF" fill-rule="evenodd"/></g></g></g><path d="M774 177.599C774 172.298 778.298 168 783.599 168L1004.4 168C1009.7 168 1014 172.298 1014 177.599L1014 344.401C1014 349.702 1009.7 354 1004.4 354L783.599 354C778.298 354 774 349.702 774 344.401Z" stroke="#D7E2EA" stroke-width="1.66667" stroke-linejoin="round" stroke-miterlimit="10" fill="#FFFFFF" fill-rule="evenodd"/><rect x="774" y="168" width="240" height="22" stroke="#0F4C81" stroke-width="1.66667" stroke-linejoin="round" stroke-miterlimit="10" fill="#0F4C81"/><text fill="#0F4C81" font-family="Aptos,Aptos_MSFontService,Arial" font-weight="700" font-size="33.3333" transform="translate(804 220)">p</text><text fill="#1F2937" font-family="Aptos,Aptos_MSFontService,Arial" font-weight="400" font-size="33.3333" transform="translate(804 271)">momentum</text><text fill="#1F2937" font-family="Aptos,Aptos_MSFontService,Arial" font-weight="400" font-size="33.3333" transform="translate(804 311)">unit: kg·m/s</text><g clip-path="url(#clip6)"><g clip-path="url(#clip7)" filter="url(#fx1)" transform="translate(1028 164)"><g><path d="M5.17847 14.778C5.17847 9.47634 9.4763 5.17851 14.7779 5.17851L235.579 5.17851C240.881 5.17851 245.178 9.47634 245.178 14.778L245.178 181.579C245.178 186.881 240.881 191.179 235.579 191.179L14.7779 191.179C9.4763 191.179 5.17847 186.881 5.17847 181.579Z" stroke="#D7E2EA" stroke-width="2" stroke-linejoin="round" stroke-miterlimit="10" fill="#FFFFFF" fill-rule="evenodd"/></g></g></g><path d="M1032 177.599C1032 172.298 1036.3 168 1041.6 168L1262.4 168C1267.7 168 1272 172.298 1272 177.599L1272 344.401C1272 349.702 1267.7 354 1262.4 354L1041.6 354C1036.3 354 1032 349.702 1032 344.401Z" stroke="#D7E2EA" stroke-width="1.66667" stroke-linejoin="round" stroke-miterlimit="10" fill="#FFFFFF" fill-rule="evenodd"/><rect x="1032" y="168" width="240" height="22" stroke="#009E49" stroke-width="1.66667" stroke-linejoin="round" stroke-miterlimit="10" fill="#009E49"/><text fill="#009E49" font-family="Aptos,Aptos_MSFontService,Arial" font-weight="700" font-size="33.3333" transform="translate(1062 220)">m</text><text fill="#1F2937" font-family="Aptos,Aptos_MSFontService,Arial" font-weight="400" font-size="33.3333" transform="translate(1062 271)">mass</text><text fill="#1F2937" font-family="Aptos,Aptos_MSFontService,Arial" font-weight="400" font-size="33.3333" transform="translate(1062 311)">unit: kg</text><g clip-path="url(#clip8)"><g clip-path="url(#clip9)" filter="url(#fx2)" transform="translate(1286 164)"><g><path d="M5.17847 14.778C5.17847 9.47634 9.4763 5.17851 14.7779 5.17851L235.579 5.17851C240.881 5.17851 245.178 9.47634 245.178 14.778L245.178 181.579C245.178 186.881 240.881 191.179 235.579 191.179L14.7779 191.179C9.4763 191.179 5.17847 186.881 5.17847 181.579Z" stroke="#D7E2EA" stroke-width="2" stroke-linejoin="round" stroke-miterlimit="10" fill="#FFFFFF" fill-rule="evenodd"/></g></g></g><path d="M1290 177.599C1290 172.298 1294.3 168 1299.6 168L1520.4 168C1525.7 168 1530 172.298 1530 177.599L1530 344.401C1530 349.702 1525.7 354 1520.4 354L1299.6 354C1294.3 354 1290 349.702 1290 344.401Z" stroke="#D7E2EA" stroke-width="1.66667" stroke-linejoin="round" stroke-miterlimit="10" fill="#FFFFFF" fill-rule="evenodd"/><rect x="1290" y="168" width="240" height="22" stroke="#D71920" stroke-width="1.66667" stroke-linejoin="round" stroke-miterlimit="10" fill="#D71920"/><text fill="#D71920" font-family="Aptos,Aptos_MSFontService,Arial" font-weight="700" font-size="33.3333" transform="translate(1320 220)">v</text><text fill="#1F2937" font-family="Aptos,Aptos_MSFontService,Arial" font-weight="400" font-size="33.3333" transform="translate(1320 271)">velocity</text><text fill="#1F2937" font-family="Aptos,Aptos_MSFontService,Arial" font-weight="400" font-size="33.3333" transform="translate(1320 311)">unit: m/s</text><g><g><g><path d="M0 0 624 0 624 312 0 312Z" fill="#FFFFFF" transform="matrix(1.15385 0 0 1 762 378)"/><path d="M580.125 229.125C582.817 229.125 585 231.308 585 234L585 234C585 236.692 582.817 238.875 580.125 238.875L43.875 238.875C41.1826 238.875 39 236.692 39 234L39 234C39 231.308 41.1826 229.125 43.875 229.125Z" fill="#CBD5E1" transform="matrix(1.15385 0 0 1 762 378)"/><path d="M193.05 175.5C197.358 175.5 200.85 178.992 200.85 183.3L200.85 204.75C200.85 209.058 197.358 212.55 193.05 212.55L134.55 212.55C130.242 212.55 126.75 209.058 126.75 204.75L126.75 183.3C126.75 178.992 130.242 175.5 134.55 175.5Z" fill="#0F4C81" transform="matrix(1.15385 0 0 1 762 378)"/><path d="M156 220.35C156 225.735 151.635 230.1 146.25 230.1 140.865 230.1 136.5 225.735 136.5 220.35 136.5 214.965 140.865 210.6 146.25 210.6 151.635 210.6 156 214.965 156 220.35Z" fill="#111827" transform="matrix(1.15385 0 0 1 762 378)"/><path d="M191.1 220.35C191.1 225.735 186.735 230.1 181.35 230.1 175.965 230.1 171.6 225.735 171.6 220.35 171.6 214.965 175.965 210.6 181.35 210.6 186.735 210.6 191.1 214.965 191.1 220.35Z" fill="#111827" transform="matrix(1.15385 0 0 1 762 378)"/><path d="M239.85 188.175 368.55 188.175" stroke="#E11D48" stroke-width="9.75" stroke-linecap="round" fill="none" transform="matrix(1.15385 0 0 1 762 378)"/><path d="M368.55 188.175 353.925 177.45 353.925 198.9Z" fill="#E11D48" transform="matrix(1.15385 0 0 1 762 378)"/><text fill="#0F172A" font-family="Arial,Arial_MSFontService,Arial" font-weight="700" font-size="26" transform="matrix(1.125 0 0 0.975 894.75 529)">Example object</text><text fill="#1F2937" font-family="Arial,Arial_MSFontService,Arial" font-weight="400" font-size="24" transform="matrix(1.125 0 0 0.975 894.75 649)">m</text><text fill="#1F2937" font-family="Arial,Arial_MSFontService,Arial" font-weight="400" font-size="24" transform="matrix(1.125 0 0 0.975 924.743 649)">=</text><text fill="#1F2937" font-family="Arial,Arial_MSFontService,Arial" font-weight="400" font-size="24" transform="matrix(1.125 0 0 0.975 948.012 649)">3</text><text fill="#1F2937" font-family="Arial,Arial_MSFontService,Arial" font-weight="400" font-size="24" transform="matrix(1.125 0 0 0.975 970.529 649)">kg</text><text fill="#1F2937" font-family="Arial,Arial_MSFontService,Arial" font-weight="400" font-size="24" transform="matrix(1.125 0 0 0.975 1079.25 649)">v</text><text fill="#1F2937" font-family="Arial,Arial_MSFontService,Arial" font-weight="400" font-size="24" transform="matrix(1.125 0 0 0.975 1100.25 649)">=</text><text fill="#1F2937" font-family="Arial,Arial_MSFontService,Arial" font-weight="400" font-size="24" transform="matrix(1.125 0 0 0.975 1123.52 649)">4</text><text fill="#1F2937" font-family="Arial,Arial_MSFontService,Arial" font-weight="400" font-size="24" transform="matrix(1.125 0 0 0.975 1146.04 649)">m</text><text fill="#1F2937" font-family="Arial,Arial_MSFontService,Arial" font-weight="400" font-size="24" transform="matrix(1.125 0 0 0.975 1168.53 649)">/</text><text fill="#1F2937" font-family="Arial,Arial_MSFontService,Arial" font-weight="400" font-size="24" transform="matrix(1.125 0 0 0.975 1176.03 649)">s</text><text fill="#1F2937" font-family="Arial,Arial_MSFontService,Arial" font-weight="400" font-size="24" transform="matrix(1.125 0 0 0.975 1273.88 649)">p</text><text fill="#1F2937" font-family="Arial,Arial_MSFontService,Arial" font-weight="400" font-size="24" transform="matrix(1.125 0 0 0.975 1296.39 649)">=</text><text fill="#1F2937" font-family="Arial,Arial_MSFontService,Arial" font-weight="400" font-size="24" transform="matrix(1.125 0 0 0.975 1319.66 649)">12</text><text fill="#1F2937" font-family="Arial,Arial_MSFontService,Arial" font-weight="400" font-size="24" transform="matrix(1.125 0 0 0.975 1357.2 649)">kg·m</text><text fill="#1F2937" font-family="Arial,Arial_MSFontService,Arial" font-weight="400" font-size="24" transform="matrix(1.125 0 0 0.975 1417.19 649)">/</text><text fill="#1F2937" font-family="Arial,Arial_MSFontService,Arial" font-weight="400" font-size="24" transform="matrix(1.125 0 0 0.975 1424.7 649)">s</text></g></g></g><text fill="#1F2937" font-family="Aptos,Aptos_MSFontService,Arial" font-style="italic" font-weight="400" font-size="33.3333" transform="translate(786 714)">Important: velocity has direction, so</text><text fill="#1F2937" font-family="Aptos,Aptos_MSFontService,Arial" font-style="italic" font-weight="400" font-size="33.3333" transform="translate(786 754)">momentum also has direction.</text></g></svg>